<svg width="295" height="80" viewBox="0 0 295 80" fill="none" xmlns="http://www.w3.org/2000/svg">
<g clip-path="url(#clip0_220_578)">
<path fill-rule="evenodd" clip-rule="evenodd" d="M33.0105 79.29C4.91185 75.4616 0 52.347 0 41.0787C0.288932 40.6453 0 39.9229 0.0722331 39.3451C1.01126 39.7062 17.2637 37.6115 25.5705 39.7062C30.5546 41.0064 36.261 46.135 39.1503 50.0356L40.7395 51.9136C41.3896 52.636 41.6063 52.9249 42.2564 53.575L45.6513 57.1144C47.4572 58.848 49.9131 60.7261 49.7686 63.4709C49.5519 66.4325 45.7236 69.1773 41.3896 65.5657C39.4393 64.0488 34.094 58.6313 32.7216 57.0422C32.2882 56.5365 31.7103 55.5253 30.988 55.3808C30.988 56.5365 34.8164 60.6538 35.8999 61.8096C37.3445 63.4709 40.0894 66.5047 41.7507 67.5882C45.5791 69.9719 50.1298 66.0713 53.1636 63.3987C53.7414 62.8931 54.3193 62.4597 54.7527 62.0263L57.7143 59.3536C59.4478 57.9812 63.7818 53.575 65.2265 52.4915C66.3822 51.6247 67.0323 50.7579 68.477 49.8911C72.522 47.4352 75.0502 51.5525 74.8335 53.6472C74.689 55.0919 73.3888 56.7532 72.811 57.4756C71.4385 59.0647 67.1768 62.7486 65.371 64.3377L57.5698 70.9832C49.263 77.5564 44.1344 79.8678 33.0105 79.29ZM47.3849 57.1144C49.9853 58.6313 50.6354 60.7261 50.4909 64.0488C51.2855 63.6876 51.43 63.1098 52.2968 62.1707L58.4366 56.8255C59.8812 55.6698 65.8044 51.1913 64.8653 48.3742C64.5042 47.074 62.3372 45.7016 59.809 46.8573C58.0032 47.6519 51.6467 53.575 49.3352 55.3808C48.6129 55.9587 48.035 56.4643 47.3849 57.1144ZM39.0059 47.7963C39.2226 48.5909 39.0781 48.1575 39.5837 48.7354L41.4618 50.9746L46.8071 46.7128C47.6016 46.0627 48.6129 45.3404 49.4074 44.6181C51.3577 42.8123 50.4909 38.8394 47.096 41.3676L39.0059 47.7963ZM42.4731 51.9136L46.3737 56.1031C47.0238 55.6698 47.4572 55.3086 48.035 54.803C48.6851 54.2251 48.974 54.0806 49.6241 53.5028C53.2358 50.469 59.2312 47.2185 56.1251 44.1125C54.7527 42.6678 53.8137 42.74 52.369 43.8958C51.7911 44.4014 51.43 44.8348 50.8521 45.3404L45.868 49.3855C44.8568 50.2523 43.5566 51.1913 42.4731 51.9136Z" fill="#014D28"/>
<path fill-rule="evenodd" clip-rule="evenodd" d="M37.4889 35.878C39.4392 33.2776 42.8341 25.9821 43.3398 22.3704C43.5565 21.1424 43.5565 18.3254 43.8454 17.7475C45.0734 21.937 44.2788 26.8489 42.473 30.6772C41.8229 32.0496 40.5227 33.7832 40.0171 34.939C42.8341 34.3611 46.3736 30.7494 47.746 28.1491C50.5631 22.7316 50.1297 15.8694 46.0124 11.102C43.9899 8.79058 42.3285 7.63485 39.7281 6.62359L38.2112 6.11796C37.4889 6.04572 38.139 6.04572 37.4167 6.11796C41.3173 13.269 37.7056 14.2803 35.4664 20.8535C34.5996 23.3094 34.2384 25.8376 34.4551 28.2935C34.5996 30.2438 35.4664 34.3611 37.4889 35.878Z" fill="#014D28"/>
<path fill-rule="evenodd" clip-rule="evenodd" d="M35.9721 35.8057C28.7488 26.5599 34.5274 21.2869 31.277 17.0974C30.1212 18.6142 29.6156 21.4313 27.7375 22.3704C25.1371 23.6706 23.6925 18.6865 26.3651 12.8356C27.7375 9.94627 29.11 8.64608 27.882 7.20142C23.8369 7.77928 17.5527 16.0139 19.8641 24.8263C20.8032 28.149 23.0424 31.544 26.3651 33.6387C29.2544 35.4446 33.5162 36.6003 35.9721 35.8057Z" fill="#014D28"/>
<path fill-rule="evenodd" clip-rule="evenodd" d="M30.5547 7.70711C29.0378 11.2465 34.0941 13.4135 35.7554 10.0186C37.2001 6.91254 32.1438 4.02322 30.5547 7.70711Z" fill="#014D28"/>
<path fill-rule="evenodd" clip-rule="evenodd" d="M32.4327 1.27826C31.2047 3.80642 34.7441 5.32331 35.8276 2.86739C36.7667 0.772625 33.5162 -1.0332 32.4327 1.27826Z" fill="#014D28"/>
<path d="M117.801 34.5808L120.929 37.3863C117.108 40.8714 113.064 42.6139 108.799 42.6139C104.237 42.6139 100.348 41.0059 97.1325 37.79C93.9166 34.5741 92.3086 30.6853 92.3086 26.1238C92.3086 21.5758 93.9166 17.6871 97.1325 14.4577C100.348 11.2283 104.237 9.6136 108.799 9.6136C113.064 9.6136 117.108 11.3561 120.929 14.8412L117.801 17.6871C114.921 15.1305 111.92 13.8522 108.799 13.8522C105.421 13.8522 102.528 15.0497 100.12 17.4449C97.7245 19.84 96.527 22.733 96.527 26.1238C96.527 29.5281 97.7245 32.4279 100.12 34.823C102.528 37.2181 105.421 38.4157 108.799 38.4157C111.92 38.4157 114.921 37.1374 117.801 34.5808Z" fill="#014D28"/>
<path d="M132.919 19.8063C136.095 19.8063 138.799 20.9299 141.033 23.177C143.28 25.4241 144.404 28.1355 144.404 31.311C144.404 34.4866 143.28 37.1979 141.033 39.445C138.799 41.6922 136.095 42.8157 132.919 42.8157C129.757 42.8157 127.052 41.6922 124.805 39.445C122.558 37.1979 121.435 34.4866 121.435 31.311C121.435 28.1355 122.558 25.4241 124.805 23.177C127.052 20.9299 129.757 19.8063 132.919 19.8063ZM132.919 24.1055C130.928 24.1055 129.225 24.8119 127.813 26.2247C126.413 27.6376 125.714 29.333 125.714 31.311C125.714 33.3025 126.413 34.9979 127.813 36.3973C129.225 37.7967 130.928 38.4964 132.919 38.4964C134.911 38.4964 136.606 37.7967 138.005 36.3973C139.418 34.9979 140.125 33.3025 140.125 31.311C140.125 29.333 139.418 27.6376 138.005 26.2247C136.606 24.8119 134.911 24.1055 132.919 24.1055Z" fill="#014D28"/>
<path d="M145.905 21.5018H150.083V23.4394C150.89 21.4076 152.444 20.3917 154.745 20.3917C157.033 20.3917 158.318 21.5489 158.6 23.8633C159.259 21.5489 161.076 20.3917 164.05 20.3917C166.983 20.3917 168.45 22.1746 168.45 25.7403V42.2708H164.252V27.6578C164.252 25.6125 163.424 24.5899 161.769 24.5899C161.083 24.5899 160.491 24.8321 159.993 25.3165C159.495 25.8009 159.246 27.429 159.246 30.2009V42.2708H155.068L155.088 27.6578C155.088 25.6125 154.254 24.5899 152.585 24.5899C151.899 24.5899 151.307 24.8321 150.809 25.3165C150.379 25.7336 150.136 26.837 150.083 28.6266V42.2708H145.905V21.5018Z" fill="#014D28"/>
<path d="M171.186 21.5018H175.364V23.4394C176.171 21.4076 177.726 20.3917 180.027 20.3917C182.314 20.3917 183.599 21.5489 183.882 23.8633C184.541 21.5489 186.357 20.3917 189.331 20.3917C192.265 20.3917 193.731 22.1746 193.731 25.7403V42.2708H189.533V27.6578C189.533 25.6125 188.706 24.5899 187.05 24.5899C186.364 24.5899 185.772 24.8321 185.274 25.3165C184.776 25.8009 184.528 27.429 184.528 30.2009V42.2708H180.349L180.37 27.6578C180.37 25.6125 179.535 24.5899 177.867 24.5899C177.181 24.5899 176.589 24.8321 176.091 25.3165C175.66 25.7336 175.418 26.837 175.364 28.6266V42.2708H171.186V21.5018Z" fill="#014D28"/>
<path d="M206.741 19.8063C209.917 19.8063 212.622 20.9299 214.855 23.177C217.102 25.4241 218.226 28.1355 218.226 31.311C218.226 34.4866 217.102 37.1979 214.855 39.445C212.622 41.6922 209.917 42.8157 206.741 42.8157C203.579 42.8157 200.875 41.6922 198.628 39.445C196.38 37.1979 195.257 34.4866 195.257 31.311C195.257 28.1355 196.38 25.4241 198.628 23.177C200.875 20.9299 203.579 19.8063 206.741 19.8063ZM206.741 24.1055C204.75 24.1055 203.048 24.8119 201.635 26.2247C200.235 27.6376 199.536 29.333 199.536 31.311C199.536 33.3025 200.235 34.9979 201.635 36.3973C203.048 37.7967 204.75 38.4964 206.741 38.4964C208.733 38.4964 210.428 37.7967 211.828 36.3973C213.24 34.9979 213.947 33.3025 213.947 31.311C213.947 29.333 213.24 27.6376 211.828 26.2247C210.428 24.8119 208.733 24.1055 206.741 24.1055Z" fill="#014D28"/>
<path d="M223.925 27.0725V42.2708H219.727V21.5018H223.925V23.9238C224.8 21.5556 226.556 20.3715 229.193 20.3715C231.44 20.3715 233.223 21.1721 234.542 22.7733C235.874 24.3611 236.56 26.3593 236.601 28.7679V42.2708H232.423V28.9294C232.423 27.7318 231.985 26.7092 231.111 25.8614C230.236 25.0003 229.193 24.5697 227.982 24.5697C226.785 24.5697 225.748 24.9868 224.874 25.8211C224.389 26.3189 224.073 26.7361 223.925 27.0725Z" fill="#014D28"/>
<path d="M96.9912 67.042V77.376H92.8132V45.0822H101.977C104.574 45.432 106.767 46.5018 108.556 48.2914C110.696 50.4443 111.766 53.0278 111.766 56.0419C111.766 59.0829 110.696 61.6799 108.556 63.8328C106.417 65.9723 103.833 67.042 100.806 67.042H96.9912ZM96.9912 49.2804V62.8438H100.806C102.663 62.8438 104.251 62.1845 105.569 60.8658C106.901 59.5337 107.567 57.9257 107.567 56.0419C107.567 54.1716 106.901 52.5771 105.569 51.2584C104.251 49.9397 102.663 49.2804 100.806 49.2804H96.9912Z" fill="#014D28"/>
<path d="M117.186 72.6732C117.885 73.2922 119.157 73.6017 121 73.6017C122.992 73.6017 124.694 72.902 126.107 71.5026C126.282 71.3142 126.638 70.8971 127.177 70.2512L131.355 71.7448C130.332 73.1577 129.592 74.0928 129.135 74.5503C126.887 76.7974 124.176 77.921 121 77.921C117.838 77.921 115.134 76.7974 112.887 74.5503C110.64 72.3032 109.516 69.5919 109.516 66.4163C109.516 63.2408 110.64 60.5294 112.887 58.2823C115.134 56.0352 117.838 54.9116 121 54.9116C123.719 54.9116 126.1 55.7324 128.146 57.374C128.482 57.6566 128.812 57.9594 129.135 58.2823C129.269 58.4169 129.653 58.8407 130.285 59.5539L128.186 61.6732L117.186 72.6732ZM124.169 59.7557C123.698 59.3924 122.642 59.2108 121 59.2108C119.022 59.2108 117.327 59.9172 115.914 61.33C114.515 62.7294 113.815 64.4249 113.815 66.4163C113.815 68.0445 113.997 69.1007 114.36 69.5851L124.169 59.7557Z" fill="#014D28"/>
<path d="M137.081 59.4126C138.642 57.3 140.559 56.1899 142.833 56.0823V60.4218C141.313 60.5025 140.102 60.9936 139.2 61.8952C137.841 63.2408 137.135 64.842 137.081 66.6989V77.376H132.903V56.6071H137.081V59.4126Z" fill="#014D28"/>
<path d="M147.587 71.6035C147.708 72.2225 147.897 72.6598 148.153 72.9155C148.65 73.3999 149.242 73.6421 149.929 73.6421C150.615 73.6421 151.2 73.3999 151.685 72.9155C152.183 72.431 152.431 71.8323 152.431 71.1191C152.431 70.4329 152.189 69.8475 151.705 69.3631C151.368 69.0267 150.649 68.5087 149.545 67.809C148.038 66.9882 146.968 66.2616 146.336 65.6292C145.233 64.5258 144.681 63.2004 144.681 61.653C144.681 60.0921 145.233 58.76 146.336 57.6566C147.439 56.5398 148.771 55.9814 150.332 55.9814C151.893 55.9814 153.192 56.5061 154.228 57.5557C154.968 58.2958 155.439 59.1233 155.641 60.0383L151.584 61.2089C151.49 60.8725 151.395 60.6505 151.301 60.5429C151.059 60.3007 150.736 60.1796 150.332 60.1796C149.929 60.1796 149.579 60.3276 149.283 60.6236C149 60.9062 148.859 61.2493 148.859 61.653C148.859 62.0566 149 62.3998 149.283 62.6823C149.538 62.9245 150.117 63.3349 151.019 63.9135C152.687 64.8285 153.898 65.6628 154.652 66.4163C155.957 67.735 156.609 69.3026 156.609 71.1191C156.609 72.976 155.957 74.5638 154.652 75.8824C153.36 77.1877 151.786 77.8403 149.929 77.8403C148.085 77.8403 146.511 77.1809 145.206 75.8623C144.304 74.9607 143.712 73.8372 143.43 72.4916L147.587 71.6035Z" fill="#014D28"/>
<path d="M168.674 54.9116C171.85 54.9116 174.555 56.0352 176.788 58.2823C179.035 60.5294 180.159 63.2408 180.159 66.4163C180.159 69.5919 179.035 72.3032 176.788 74.5503C174.555 76.7974 171.85 77.921 168.674 77.921C165.512 77.921 162.808 76.7974 160.561 74.5503C158.313 72.3032 157.19 69.5919 157.19 66.4163C157.19 63.2408 158.313 60.5294 160.561 58.2823C162.808 56.0352 165.512 54.9116 168.674 54.9116ZM168.674 59.2108C166.683 59.2108 164.981 59.9172 163.568 61.33C162.169 62.7429 161.469 64.4383 161.469 66.4163C161.469 68.4078 162.169 70.1032 163.568 71.5026C164.981 72.902 166.683 73.6017 168.674 73.6017C170.666 73.6017 172.361 72.902 173.761 71.5026C175.174 70.1032 175.88 68.4078 175.88 66.4163C175.88 64.4383 175.174 62.7429 173.761 61.33C172.361 59.9172 170.666 59.2108 168.674 59.2108Z" fill="#014D28"/>
<path d="M185.858 62.1777V77.376H181.66V56.6071H185.858V59.0291C186.733 56.6609 188.489 55.4768 191.126 55.4768C193.373 55.4768 195.156 56.2774 196.475 57.8786C197.807 59.4664 198.493 61.4646 198.534 63.8732V77.376H194.356V64.0346C194.356 62.8371 193.918 61.8144 193.044 60.9667C192.169 60.1056 191.126 59.675 189.915 59.675C188.718 59.675 187.681 60.0921 186.807 60.9264C186.322 61.4242 186.006 61.8414 185.858 62.1777Z" fill="#014D28"/>
<path d="M210.036 49.2804V62.8438H213.851C215.708 62.8438 217.296 62.1845 218.614 60.8658C219.946 59.5337 220.612 57.9257 220.612 56.0419C220.612 54.1716 219.946 52.5771 218.614 51.2584C217.296 49.9397 215.708 49.2804 213.851 49.2804H210.036ZM213.851 67.042H210.036V77.376H205.858V45.0822H215.021C217.618 45.432 219.812 46.5018 221.601 48.2914C223.741 50.4443 224.811 53.0278 224.811 56.0419C224.811 59.0829 223.741 61.6799 221.601 63.8328C220.121 65.3129 218.991 66.1472 218.211 66.3356L225.376 77.376H220.31L213.851 67.042Z" fill="#014D28"/>
<path d="M231.892 72.6732C232.592 73.2922 233.863 73.6017 235.707 73.6017C237.698 73.6017 239.401 72.902 240.813 71.5026C240.988 71.3142 241.345 70.8971 241.883 70.2512L246.061 71.7448C245.038 73.1577 244.298 74.0928 243.841 74.5503C241.594 76.7974 238.882 77.921 235.707 77.921C232.545 77.921 229.84 76.7974 227.593 74.5503C225.346 72.3032 224.222 69.5919 224.222 66.4163C224.222 63.2408 225.346 60.5294 227.593 58.2823C229.84 56.0352 232.545 54.9116 235.707 54.9116C238.425 54.9116 240.807 55.7324 242.852 57.374C243.188 57.6566 243.518 57.9594 243.841 58.2823C243.975 58.4169 244.359 58.8407 244.991 59.5539L242.892 61.6732L231.892 72.6732ZM238.876 59.7557C238.405 59.3924 237.349 59.2108 235.707 59.2108C233.729 59.2108 232.033 59.9172 230.621 61.33C229.221 62.7294 228.522 64.4249 228.522 66.4163C228.522 68.0445 228.703 69.1007 229.066 69.5851L238.876 59.7557Z" fill="#014D28"/>
<path d="M251.735 45.062V77.376H247.537V45.062H251.735Z" fill="#014D28"/>
<path d="M258.992 56.6071V77.376H254.814V56.6071H258.992ZM256.893 48.0694C257.7 48.0694 258.393 48.3519 258.972 48.9171C259.55 49.4822 259.84 50.1752 259.84 50.996C259.84 51.8168 259.55 52.5098 258.972 53.0749C258.393 53.6401 257.7 53.9226 256.893 53.9226C256.099 53.9226 255.413 53.6401 254.834 53.0749C254.256 52.5098 253.966 51.8168 253.966 50.996C253.966 50.1752 254.256 49.4822 254.834 48.9171C255.413 48.3519 256.099 48.0694 256.893 48.0694Z" fill="#014D28"/>
<path d="M268.514 72.6732C269.214 73.2922 270.485 73.6017 272.329 73.6017C274.32 73.6017 276.022 72.902 277.435 71.5026C277.61 71.3142 277.967 70.8971 278.505 70.2512L282.683 71.7448C281.66 73.1577 280.92 74.0928 280.463 74.5503C278.216 76.7974 275.504 77.921 272.329 77.921C269.167 77.921 266.462 76.7974 264.215 74.5503C261.968 72.3032 260.844 69.5919 260.844 66.4163C260.844 63.2408 261.968 60.5294 264.215 58.2823C266.462 56.0352 269.167 54.9116 272.329 54.9116C275.047 54.9116 277.429 55.7324 279.474 57.374C279.81 57.6566 280.14 57.9594 280.463 58.2823C280.597 58.4169 280.981 58.8407 281.613 59.5539L279.514 61.6732L268.514 72.6732ZM275.498 59.7557C275.027 59.3924 273.97 59.2108 272.329 59.2108C270.351 59.2108 268.655 59.9172 267.243 61.33C265.843 62.7294 265.143 64.4249 265.143 66.4163C265.143 68.0445 265.325 69.1007 265.688 69.5851L275.498 59.7557Z" fill="#014D28"/>
<path d="M289.003 60.7649V77.3962H284.805V60.7649H282.948V56.5869H284.805V52.8529C284.899 51.1306 285.558 49.6504 286.783 48.4125C288.047 47.2284 289.514 46.6363 291.183 46.6363C292.017 46.6363 293.282 46.9256 294.977 47.5042L293.585 51.4602C292.4 50.9624 291.654 50.7134 291.344 50.7134C290.779 50.7134 290.234 50.9489 289.709 51.4199C289.265 51.8639 289.03 52.3954 289.003 53.0144V56.5869H292.737V60.7649H289.003Z" fill="#014D28"/>
</g>
<defs>
<clipPath id="clip0_220_578">
<rect width="295" height="79.1949" fill="white" transform="translate(0 0.181122)"/>
</clipPath>
</defs>
</svg>
